<svg width="25" height="24" viewBox="0 0 25 24" fill="none" xmlns="http://www.w3.org/2000/svg">
<path d="M20.75 4.5V9C20.75 9.19891 20.671 9.38968 20.5303 9.53033C20.3897 9.67098 20.1989 9.75 20 9.75C19.8011 9.75 19.6103 9.67098 19.4697 9.53033C19.329 9.38968 19.25 9.19891 19.25 9V6.31031L14.5306 11.0306C14.3899 11.1714 14.199 11.2504 14 11.2504C13.801 11.2504 13.6101 11.1714 13.4694 11.0306C13.3286 10.8899 13.2496 10.699 13.2496 10.5C13.2496 10.301 13.3286 10.1101 13.4694 9.96937L18.1897 5.25H15.5C15.3011 5.25 15.1103 5.17098 14.9697 5.03033C14.829 4.88968 14.75 4.69891 14.75 4.5C14.75 4.30109 14.829 4.11032 14.9697 3.96967C15.1103 3.82902 15.3011 3.75 15.5 3.75H20C20.1989 3.75 20.3897 3.82902 20.5303 3.96967C20.671 4.11032 20.75 4.30109 20.75 4.5ZM10.4694 12.9694L5.75 17.6897V15C5.75 14.8011 5.67098 14.6103 5.53033 14.4697C5.38968 14.329 5.19891 14.25 5 14.25C4.80109 14.25 4.61032 14.329 4.46967 14.4697C4.32902 14.6103 4.25 14.8011 4.25 15V19.5C4.25 19.6989 4.32902 19.8897 4.46967 20.0303C4.61032 20.171 4.80109 20.25 5 20.25H9.5C9.69891 20.25 9.88968 20.171 10.0303 20.0303C10.171 19.8897 10.25 19.6989 10.25 19.5C10.25 19.3011 10.171 19.1103 10.0303 18.9697C9.88968 18.829 9.69891 18.75 9.5 18.75H6.81031L11.5306 14.0306C11.6714 13.8899 11.7504 13.699 11.7504 13.5C11.7504 13.301 11.6714 13.1101 11.5306 12.9694C11.3899 12.8286 11.199 12.7496 11 12.7496C10.801 12.7496 10.6101 12.8286 10.4694 12.9694Z" fill="black"/>
</svg>
