<svg width="16" height="16" viewBox="0 0 16 16" fill="none" xmlns="http://www.w3.org/2000/svg">
<path d="M9.14487 3.09763C9.27504 2.96746 9.4861 2.96746 9.61627 3.09763C9.74645 3.2278 9.74645 3.43886 9.61627 3.56904L5.37365 7.81169V7.81171C5.24553 7.93983 5.24352 8.14635 5.36764 8.27693L5.37365 8.2831L9.61627 12.5257L9.62229 12.5318C9.74642 12.6624 9.74441 12.869 9.61627 12.9971C9.48813 13.1252 9.28163 13.1272 9.15104 13.0031L9.14487 12.9971L4.90225 8.75451L4.90227 8.75449C4.51175 8.36398 4.51174 7.73079 4.90227 7.34029L9.14487 3.09763Z" fill="#666E7D"/>
<path d="M8.85464 2.68669C9.16001 2.4377 9.60096 2.43784 9.9064 2.68669L9.96987 2.74431L10.0275 2.80778C10.2764 3.11323 10.2765 3.55416 10.0275 3.85954L9.96987 3.92302L5.84487 8.04704L9.97378 12.1759L9.97964 12.1828L9.98452 12.1877L10.0392 12.2511C10.2763 12.5563 10.2721 12.9878 10.0265 13.2883L9.96987 13.3508C9.64945 13.6712 9.13342 13.6759 8.80679 13.3654L8.79702 13.3556L8.79116 13.3508L4.19546 8.75505L4.25796 8.69255C3.99193 8.13508 4.08729 7.44815 4.54897 6.98649L8.79116 2.74431L8.85464 2.68669Z" fill="#666E7D"/>
</svg>
