<svg width="16" height="16" viewBox="0 0 16 16" fill="none" xmlns="http://www.w3.org/2000/svg">
<path fill-rule="evenodd" clip-rule="evenodd" d="M1.79289 2.29289C1.98043 2.10536 2.23478 2 2.5 2H10.5C10.7652 2 11.0196 2.10536 11.2071 2.29289C11.3946 2.48043 11.5 2.73478 11.5 3V5H13.5C13.7652 5 14.0196 5.10536 14.2071 5.29289C14.3946 5.48043 14.5 5.73478 14.5 6V14C14.5 14.1926 14.3893 14.3682 14.2155 14.4512C14.0417 14.5342 13.8356 14.51 13.6857 14.3889L11.3482 12.5H5.5C5.23478 12.5 4.98043 12.3946 4.79289 12.2071C4.60536 12.0196 4.5 11.7652 4.5 11.5V9.62264L2.31426 11.3889C2.16442 11.51 1.95835 11.5342 1.78451 11.4512C1.61068 11.3682 1.5 11.1926 1.5 11V3C1.5 2.73478 1.60536 2.48043 1.79289 2.29289ZM5.5 9.5V11.5H11.525C11.6394 11.5 11.7503 11.5392 11.8393 11.6111L13.5 12.9531V6H11.5V8.5C11.5 8.76521 11.3946 9.01957 11.2071 9.20711C11.0196 9.39464 10.7652 9.5 10.5 9.5H5.5ZM10.5 3L2.5 3L2.5 9.95311L4.16074 8.6111C4.2497 8.53921 4.36062 8.5 4.475 8.5H10.5V3Z" fill="#282D37"/>
</svg>
