<svg width="16" height="16" viewBox="0 0 16 16" fill="none" xmlns="http://www.w3.org/2000/svg">
<path d="M12.2531 8.10214L9.02746 6.91464L7.83996 3.68651C7.76964 3.49547 7.64241 3.33059 7.47544 3.21413C7.30847 3.09767 7.10979 3.03522 6.90621 3.03522C6.70264 3.03522 6.50396 3.09767 6.33699 3.21413C6.17002 3.33059 6.04279 3.49547 5.97246 3.68651L4.78371 6.91089L1.55559 8.09839C1.36454 8.16871 1.19967 8.29594 1.0832 8.46291C0.966741 8.62989 0.904297 8.82856 0.904297 9.03214C0.904297 9.23571 0.966741 9.43439 1.0832 9.60136C1.19967 9.76834 1.36454 9.89557 1.55559 9.96589L4.77934 11.1609L5.96684 14.3871C6.03716 14.5782 6.16439 14.7431 6.33136 14.8595C6.49833 14.976 6.69701 15.0384 6.90059 15.0384C7.10416 15.0384 7.30284 14.976 7.46981 14.8595C7.63678 14.7431 7.76402 14.5782 7.83434 14.3871L9.02184 11.1615L12.25 9.97401C12.441 9.90369 12.6059 9.77646 12.7223 9.60949C12.8388 9.44252 12.9013 9.24384 12.9013 9.04026C12.9013 8.83669 12.8388 8.63801 12.7223 8.47104C12.6059 8.30407 12.441 8.17684 12.25 8.10651L12.2531 8.10214ZM8.67871 10.2234C8.54359 10.273 8.42089 10.3514 8.31911 10.4532C8.21734 10.5549 8.13893 10.6776 8.08934 10.8128L6.90184 14.029L5.71684 10.8103C5.66721 10.6759 5.58905 10.5538 5.48774 10.4525C5.38642 10.3512 5.26437 10.273 5.12996 10.2234L1.91371 9.03589L5.12996 7.84839C5.26437 7.79876 5.38642 7.7206 5.48774 7.61929C5.58905 7.51798 5.66721 7.39592 5.71684 7.26151L6.90434 4.04526L8.09184 7.26151C8.14143 7.39663 8.21984 7.51934 8.32161 7.62111C8.42339 7.72289 8.54609 7.8013 8.68121 7.85089L11.8975 9.03839L8.67871 10.2234ZM8.90434 2.53589C8.90434 2.40328 8.95702 2.2761 9.05078 2.18234C9.14455 2.08857 9.27173 2.03589 9.40434 2.03589H10.4043V1.03589C10.4043 0.90328 10.457 0.776103 10.5508 0.682335C10.6446 0.588567 10.7717 0.535889 10.9043 0.535889C11.0369 0.535889 11.1641 0.588567 11.2579 0.682335C11.3517 0.776103 11.4043 0.90328 11.4043 1.03589V2.03589H12.4043C12.5369 2.03589 12.6641 2.08857 12.7579 2.18234C12.8517 2.2761 12.9043 2.40328 12.9043 2.53589C12.9043 2.6685 12.8517 2.79567 12.7579 2.88944C12.6641 2.98321 12.5369 3.03589 12.4043 3.03589H11.4043V4.03589C11.4043 4.1685 11.3517 4.29567 11.2579 4.38944C11.1641 4.48321 11.0369 4.53589 10.9043 4.53589C10.7717 4.53589 10.6446 4.48321 10.5508 4.38944C10.457 4.29567 10.4043 4.1685 10.4043 4.03589V3.03589H9.40434C9.27173 3.03589 9.14455 2.98321 9.05078 2.88944C8.95702 2.79567 8.90434 2.6685 8.90434 2.53589ZM15.4043 5.53589C15.4043 5.6685 15.3517 5.79567 15.2579 5.88944C15.1641 5.98321 15.0369 6.03589 14.9043 6.03589H14.4043V6.53589C14.4043 6.6685 14.3517 6.79567 14.2579 6.88944C14.1641 6.98321 14.0369 7.03589 13.9043 7.03589C13.7717 7.03589 13.6446 6.98321 13.5508 6.88944C13.457 6.79567 13.4043 6.6685 13.4043 6.53589V6.03589H12.9043C12.7717 6.03589 12.6446 5.98321 12.5508 5.88944C12.457 5.79567 12.4043 5.6685 12.4043 5.53589C12.4043 5.40328 12.457 5.2761 12.5508 5.18234C12.6446 5.08857 12.7717 5.03589 12.9043 5.03589H13.4043V4.53589C13.4043 4.40328 13.457 4.2761 13.5508 4.18234C13.6446 4.08857 13.7717 4.03589 13.9043 4.03589C14.0369 4.03589 14.1641 4.08857 14.2579 4.18234C14.3517 4.2761 14.4043 4.40328 14.4043 4.53589V5.03589H14.9043C15.0369 5.03589 15.1641 5.08857 15.2579 5.18234C15.3517 5.2761 15.4043 5.40328 15.4043 5.53589Z" fill="url(#paint0_linear_7101_2194)"/>
<defs>
<linearGradient id="paint0_linear_7101_2194" x1="1.56339" y1="19.2079" x2="22.6347" y2="8.00123" gradientUnits="userSpaceOnUse">
<stop stop-color="#2A4ECC"/>
<stop offset="0.4" stop-color="#DA0B78"/>
<stop offset="1" stop-color="#FF4AA9"/>
</linearGradient>
</defs>
</svg>
